<?xml version="1.0" encoding="UTF-8"?><svg id="Layer_1" xmlns="http://www.w3.org/2000/svg" viewBox="0 0 1300 900"><defs><style>.cls-1{fill:#ff9624;}.cls-2{fill:#1ec49c;}.cls-3{fill:#ffb208;}.cls-4{fill:#0fcad8;}.cls-5{fill:#5e1cc6;}.cls-6{fill:#12a9d8;}.cls-7{fill:#1c44c6;}.cls-8{fill:#1b86ce;}</style></defs><path class="cls-7" d="M654.78,407.32l23.35-58.63c2.75-6.92,9.45-11.45,16.89-11.45h0c7.19,0,13.71,4.24,16.62,10.81l15.12,34.1h-17.5l-13.75-30.49-24.44,55.66h-16.28Z"/><path class="cls-2" d="M645.22,492.68l-23.35,58.63c-2.75,6.92-9.45,11.45-16.89,11.45h0c-7.19,0-13.71-4.24-16.62-10.81l-15.12-34.1h17.5l14.27,30.74,23.92-55.92h16.28Z"/><path class="cls-8" d="M623.2,416.44l-24.94-57.97c-2.94-6.84-1.42-14.78,3.84-20.04h0c5.09-5.09,12.69-6.7,19.4-4.11l34.8,13.42-12.38,12.38-31.29-11.84,22.08,56.64-11.51,11.51Z"/><path class="cls-3" d="M676.8,483.56l24.94,57.97c2.94,6.84,1.42,14.78-3.84,20.04h0c-5.09,5.09-12.69,6.7-19.4,4.11l-34.8-13.42,12.38-12.38,31.83,11.65-22.63-56.45,11.51-11.51Z"/><path class="cls-6" d="M607.32,445.22l-58.63-23.35c-6.92-2.75-11.45-9.45-11.45-16.89h0c0-7.19,4.24-13.71,10.81-16.62l34.1-15.12v17.5l-30.49,13.75,55.66,24.44v16.28Z"/><path class="cls-1" d="M692.68,454.78l58.63,23.35c6.92,2.75,11.45,9.45,11.45,16.89h0c0,7.19-4.24,13.71-10.81,16.62l-34.1,15.12v-17.5l30.74-14.27-55.92-23.92v-16.28Z"/><path class="cls-4" d="M616.44,476.8l-57.97,24.94c-6.84,2.94-14.78,1.42-20.04-3.84h0c-5.09-5.09-6.7-12.69-4.11-19.4l13.42-34.8,12.38,12.38-11.84,31.29,56.64-22.08,11.51,11.51Z"/><path class="cls-5" d="M683.56,423.2l57.97-24.94c6.84-2.94,14.78-1.42,20.04,3.84h0c5.09,5.09,6.7,12.69,4.11,19.4l-13.42,34.8-12.38-12.38,11.65-31.83-56.45,22.63-11.51-11.51Z"/></svg>